<svg xmlns="http://www.w3.org/2000/svg" xmlns:xlink="http://www.w3.org/1999/xlink" width="851" zoomAndPan="magnify" viewBox="0 0 638.25 236.249991" height="315" preserveAspectRatio="xMidYMid meet" version="1.0"><defs><clipPath id="848604505c"><path d="M 334.160156 22 L 373 22 L 373 64 L 334.160156 64 Z M 334.160156 22 " clip-rule="nonzero"/></clipPath><clipPath id="a2e1c8d1c9"><path d="M 524 14.085938 L 587 14.085938 L 587 76.773438 L 524 76.773438 Z M 524 14.085938 " clip-rule="nonzero"/></clipPath><clipPath id="3a3fd98f23"><path d="M 0.605469 0.808594 L 226.824219 0.808594 L 226.824219 104.378906 L 0.605469 104.378906 Z M 0.605469 0.808594 " clip-rule="nonzero"/></clipPath><clipPath id="a2044a90a5"><path d="M 230.238281 15.925781 L 292.792969 15.925781 L 292.792969 78.613281 L 230.238281 78.613281 Z M 230.238281 15.925781 " clip-rule="nonzero"/></clipPath><clipPath id="3b565bfa02"><rect x="0" width="588" y="0" height="105"/></clipPath></defs><g transform="matrix(1, 0, 0, 1, 26, 65)"><g clip-path="url(#3b565bfa02)"><g clip-path="url(#848604505c)"><path fill="#003383" d="M 357.570312 47.210938 L 348.957031 47.210938 L 353.542969 32.238281 Z M 344.488281 63.710938 L 347.429688 53.851562 L 359.035156 53.851562 L 361.789062 63.683594 L 372.515625 63.683594 L 361.855469 26.191406 C 361.226562 23.976562 359.898438 22.953125 357.570312 22.953125 L 342.355469 22.953125 L 342.355469 26.496094 L 343.617188 26.496094 C 345.207031 26.496094 346.066406 27.125 346.066406 28.332031 C 346.066406 29.132812 345.886719 29.800781 345.257812 31.625 L 334.578125 63.710938 Z M 344.488281 63.710938 " fill-opacity="1" fill-rule="nonzero"/></g><path fill="#003383" d="M 384.933594 63.710938 L 384.933594 26.078125 C 384.933594 24.117188 383.785156 22.953125 381.882812 22.953125 L 372.449219 22.953125 L 372.449219 26.496094 L 373.078125 26.496094 C 374.664062 26.496094 375.339844 27.171875 375.339844 28.773438 L 375.339844 63.710938 Z M 384.933594 63.710938 " fill-opacity="1" fill-rule="nonzero"/><path fill="#003383" d="M 401.242188 63.710938 L 401.242188 26.078125 C 401.242188 24.117188 400.074219 22.953125 398.1875 22.953125 L 388.78125 22.953125 L 388.78125 26.496094 L 389.414062 26.496094 C 391.003906 26.496094 391.679688 27.171875 391.679688 28.773438 L 391.679688 63.710938 Z M 401.242188 63.710938 " fill-opacity="1" fill-rule="nonzero"/><path fill="#003383" d="M 417.972656 26.671875 C 417.972656 23.9375 415.949219 22.253906 412.476562 22.253906 C 409.003906 22.253906 406.964844 23.90625 406.964844 26.671875 C 406.964844 29.4375 409.054688 31.089844 412.476562 31.089844 C 415.898438 31.089844 417.972656 29.449219 417.972656 26.671875 M 417.792969 63.710938 L 417.792969 36.277344 C 417.792969 34.320312 416.628906 33.167969 414.730469 33.167969 L 405.445312 33.167969 L 405.445312 36.636719 L 405.996094 36.636719 C 407.578125 36.636719 408.253906 37.371094 408.253906 38.960938 L 408.253906 63.710938 Z M 417.792969 63.710938 " fill-opacity="1" fill-rule="nonzero"/><path fill="#003383" d="M 438.796875 49.039062 L 438.796875 54.980469 C 437.199219 56.628906 435.253906 57.636719 433.609375 57.636719 C 431.960938 57.636719 431.285156 56.792969 431.285156 54.480469 C 431.285156 52.171875 431.765625 51.191406 433.480469 50.53125 C 435.195312 49.832031 436.96875 49.335938 438.796875 49.039062 M 425.894531 41.910156 C 428.859375 40.4375 431.996094 39.640625 435.304688 39.523438 C 437.882812 39.523438 438.796875 40.4375 438.796875 43.109375 L 438.796875 43.789062 C 434.890625 44.421875 433.664062 44.660156 431.460938 45.144531 C 430.226562 45.417969 429.023438 45.796875 427.851562 46.277344 C 423.996094 47.824219 422.171875 50.800781 422.171875 55.378906 C 422.171875 61.183594 424.695312 63.988281 429.867188 63.988281 C 431.640625 63.992188 433.351562 63.671875 435.003906 63.019531 C 436.496094 62.34375 437.859375 61.46875 439.097656 60.394531 L 439.097656 60.824219 C 439.097656 62.71875 440.070312 63.683594 441.972656 63.683594 L 450.714844 63.683594 L 450.714844 60.421875 L 450.285156 60.421875 C 448.636719 60.421875 448.03125 59.683594 448.03125 57.730469 L 448.03125 43.183594 C 448.03125 35.425781 445.335938 32.726562 437.566406 32.726562 C 435.09375 32.738281 432.65625 33.027344 430.25 33.589844 C 427.972656 34.097656 425.8125 34.914062 423.769531 36.039062 Z M 425.894531 41.910156 " fill-opacity="1" fill-rule="nonzero"/><path fill="#003383" d="M 464.628906 63.710938 L 464.628906 43.058594 C 466.226562 41.285156 467.867188 40.480469 469.761719 40.480469 C 471.789062 40.480469 472.285156 41.285156 472.285156 44.355469 L 472.285156 63.710938 L 481.816406 63.710938 L 481.816406 42.945312 C 481.816406 38.109375 481.46875 36.582031 479.921875 34.941406 C 478.660156 33.519531 476.6875 32.800781 474.167969 32.800781 C 470.4375 32.800781 467.8125 33.957031 464.28125 37.257812 L 464.28125 36.039062 C 464.28125 34.144531 463.292969 33.167969 461.34375 33.167969 L 452.285156 33.167969 L 452.285156 36.636719 L 452.832031 36.636719 C 454.417969 36.636719 455.097656 37.371094 455.097656 38.960938 L 455.097656 63.710938 Z M 464.628906 63.710938 " fill-opacity="1" fill-rule="nonzero"/><path fill="#003383" d="M 510.085938 57.296875 L 496.789062 57.296875 L 509.507812 39.464844 L 509.507812 33.152344 L 489.5625 33.152344 C 487.300781 33.152344 486.261719 34.1875 486.261719 36.457031 L 486.261719 42.007812 L 489.800781 42.007812 L 489.800781 41.464844 C 489.800781 40.058594 490.535156 39.390625 492.054688 39.390625 L 498.910156 39.390625 L 486.058594 57.421875 L 486.058594 63.734375 L 510.042969 63.734375 Z M 510.085938 57.296875 " fill-opacity="1" fill-rule="nonzero"/><g clip-path="url(#a2e1c8d1c9)"><path fill="#003383" d="M 560.121094 62.933594 L 560.121094 28.402344 C 560.121094 25.648438 559.140625 24.722656 556.472656 24.722656 L 548.386719 24.722656 L 548.386719 28.601562 L 548.871094 28.601562 C 550.714844 28.601562 551.074219 29.019531 551.074219 31.242188 L 551.074219 62.933594 Z M 564.109375 62.933594 L 573.085938 62.933594 L 573.085938 36.039062 C 573.085938 33.335938 572.042969 32.363281 569.410156 32.363281 L 564.109375 32.363281 Z M 547.113281 62.933594 L 547.113281 32.390625 L 541.789062 32.390625 C 539.160156 32.390625 538.128906 33.363281 538.128906 36.0625 L 538.128906 62.933594 Z M 581.578125 45.378906 C 581.578125 60.597656 570.636719 71.660156 555.605469 71.660156 C 540.578125 71.660156 529.609375 60.597656 529.609375 45.378906 C 529.609375 30.164062 540.574219 19.097656 555.605469 19.097656 C 570.640625 19.097656 581.578125 30.226562 581.578125 45.378906 M 586.894531 45.378906 C 586.894531 27.484375 573.507812 14.085938 555.605469 14.085938 C 537.707031 14.085938 524.308594 27.484375 524.308594 45.378906 C 524.308594 63.273438 537.695312 76.667969 555.605469 76.667969 C 573.519531 76.667969 586.894531 63.316406 586.894531 45.378906 " fill-opacity="1" fill-rule="nonzero"/></g><g clip-path="url(#3a3fd98f23)"><path fill="#003383" d="M 157.332031 24.496094 C 154.023438 24.511719 151.511719 22.121094 151.472656 18.910156 C 151.433594 15.75 154.089844 13.160156 157.355469 13.183594 C 160.585938 13.203125 163.195312 15.738281 163.195312 18.863281 C 163.195312 21.988281 160.601562 24.480469 157.332031 24.496094 M 208.765625 13.183594 C 205.59375 13.210938 202.992188 15.730469 202.976562 18.792969 C 202.960938 22.054688 205.46875 24.511719 208.8125 24.503906 C 212.140625 24.496094 214.613281 22.105469 214.617188 18.886719 C 214.621094 15.636719 212.074219 13.152344 208.765625 13.179688 M 141.460938 96.324219 C 141.246094 99.144531 139.597656 101.285156 137.03125 101.910156 C 133.84375 102.6875 130.960938 102.007812 128.605469 99.601562 C 128.007812 98.988281 127.558594 99.046875 127.0625 99.652344 C 126.894531 99.859375 126.746094 100.085938 126.546875 100.253906 C 125.894531 100.804688 126.101562 101.203125 126.675781 101.675781 C 129.339844 103.882812 132.332031 104.902344 135.808594 104.558594 C 141.152344 104.023438 144.140625 100.785156 144.144531 95.359375 C 144.148438 89.976562 144.144531 84.59375 144.144531 79.210938 C 144.144531 77.492188 143.953125 77.339844 142.261719 77.441406 C 141.648438 77.480469 141.46875 77.761719 141.492188 78.324219 C 141.515625 78.902344 141.496094 79.480469 141.496094 80.160156 C 136.636719 76.179688 131.425781 76.046875 128.09375 79.71875 C 124.769531 83.378906 124.726562 89.328125 128.011719 92.789062 C 131.402344 96.363281 136.871094 96.207031 141.476562 92.308594 C 141.476562 93.742188 141.558594 95.042969 141.460938 96.328125 M 134.933594 79.246094 C 138.726562 79.207031 141.707031 82.273438 141.757812 86.261719 C 141.808594 90.238281 139.058594 93.054688 135.109375 93.078125 C 131.125 93.097656 128.394531 90.332031 128.363281 86.246094 C 128.335938 82.304688 131.171875 79.285156 134.933594 79.246094 M 198.457031 78.910156 C 198.425781 77.605469 198.234375 77.492188 196.832031 77.429688 C 195.675781 77.378906 195.773438 78.109375 195.777344 78.859375 C 195.78125 86.863281 195.78125 94.863281 195.78125 102.867188 C 195.78125 103.097656 195.78125 103.332031 195.789062 103.5625 C 195.828125 104.832031 196.769531 104.515625 197.515625 104.578125 C 198.363281 104.644531 198.472656 104.160156 198.46875 103.460938 C 198.449219 100.277344 198.460938 97.089844 198.460938 93.898438 L 198.460938 92.671875 C 200.757812 94.4375 203.011719 95.785156 205.824219 95.804688 C 208.734375 95.824219 210.964844 94.539062 212.617188 92.234375 C 215.433594 88.3125 214.84375 82.3125 211.421875 79.214844 C 207.875 76.007812 202.746094 76.332031 198.460938 80.167969 C 198.460938 79.632812 198.46875 79.269531 198.460938 78.910156 M 204.996094 93.597656 C 201.148438 93.621094 198.214844 90.539062 198.214844 86.46875 C 198.207031 82.371094 201.074219 79.285156 204.917969 79.246094 C 208.804688 79.207031 211.558594 82.1875 211.566406 86.441406 C 211.574219 90.648438 208.886719 93.574219 205 93.597656 M 165.316406 76.933594 C 160.394531 76.757812 156.042969 80.882812 155.921875 85.84375 C 155.78125 91.628906 159.585938 95.804688 165.058594 95.878906 C 170.78125 95.953125 174.742188 92.128906 174.886719 86.390625 C 175.015625 81.089844 171.023438 77.140625 165.320312 76.933594 M 163.058594 93.195312 C 160.671875 92.332031 159.417969 90.476562 158.902344 88.042969 C 158.113281 84.339844 159.941406 80.75 163.1875 79.621094 C 167.71875 78.042969 172.089844 81.421875 172.078125 86.5 C 172.066406 91.515625 167.613281 94.839844 163.058594 93.195312 M 189.839844 94.417969 C 189.929688 95.363281 190.167969 95.441406 191.671875 95.417969 C 192.53125 95.402344 192.40625 94.867188 192.402344 94.347656 C 192.382812 91.160156 192.359375 87.972656 192.34375 84.789062 C 192.332031 82.761719 192.359375 80.734375 192.324219 78.710938 C 192.304688 77.546875 192.085938 77.472656 190.640625 77.429688 C 189.609375 77.398438 189.652344 78.015625 189.65625 78.71875 C 189.65625 81.574219 189.660156 84.429688 189.628906 87.285156 C 189.613281 88.996094 189.128906 90.578125 187.988281 91.867188 C 186.621094 93.417969 184.894531 93.882812 182.898438 93.410156 C 181.050781 92.96875 180.179688 91.648438 179.839844 89.90625 C 179.664062 89.003906 179.597656 88.0625 179.585938 87.140625 C 179.558594 84.347656 179.578125 81.558594 179.574219 78.769531 C 179.570312 77.523438 179.4375 77.445312 178.222656 77.394531 C 177.261719 77.355469 176.921875 77.660156 176.941406 78.695312 C 177.015625 82.375 176.921875 86.0625 177.027344 89.742188 C 177.140625 93.660156 180.257812 96.230469 184.125 95.855469 C 186.359375 95.640625 188.113281 94.660156 189.730469 92.96875 C 189.765625 93.453125 189.789062 93.9375 189.832031 94.417969 M 149.992188 78.550781 C 149.894531 77.417969 149.894531 77.460938 148.273438 77.4375 C 147.328125 77.421875 147.410156 78.007812 147.414062 78.621094 C 147.441406 83.765625 147.460938 88.910156 147.492188 94.050781 C 147.496094 95.296875 147.65625 95.359375 149.078125 95.414062 C 150.1875 95.453125 150.207031 94.78125 150.179688 94 C 150.175781 93.835938 150.152344 93.667969 150.15625 93.503906 C 150.207031 90.488281 150.183594 87.464844 150.339844 84.453125 C 150.488281 81.691406 152.097656 80.023438 154.726562 79.65625 C 155.308594 79.574219 155.910156 79.648438 156.496094 79.609375 C 156.734375 79.59375 157.046875 79.546875 157.1875 79.386719 C 157.925781 78.535156 157.441406 77.148438 156.335938 77.046875 C 155.632812 76.976562 154.894531 77.054688 154.195312 77.1875 C 152.488281 77.511719 151.304688 78.640625 150.140625 80.167969 C 150.074219 79.472656 150.03125 79.011719 149.992188 78.554688 M 10.515625 33.75 C 10.507812 32.511719 10.316406 32.398438 9.054688 32.429688 C 6.742188 32.484375 4.425781 32.5 2.113281 32.453125 C 0.78125 32.421875 0.605469 32.503906 0.605469 33.820312 C 0.605469 43.289062 0.605469 52.765625 0.605469 62.238281 C 0.605469 63.558594 0.695312 63.652344 1.984375 63.652344 C 4.402344 63.65625 6.816406 63.648438 9.234375 63.65625 C 10.796875 63.660156 10.929688 63.550781 10.921875 61.96875 C 10.894531 57.042969 10.851562 52.121094 10.84375 47.191406 C 10.839844 45.382812 11.089844 43.621094 12.160156 42.082031 C 13.328125 40.402344 14.945312 39.8125 16.890625 40.175781 C 18.695312 40.511719 19.582031 41.820312 19.964844 43.507812 C 20.140625 44.273438 20.230469 45.074219 20.230469 45.859375 C 20.253906 51.335938 20.242188 56.816406 20.246094 62.292969 C 20.246094 63.53125 20.355469 63.644531 21.582031 63.648438 C 24.066406 63.652344 26.550781 63.652344 29.039062 63.648438 C 30.332031 63.648438 30.433594 63.539062 30.433594 62.246094 C 30.433594 57.117188 30.429688 51.980469 30.441406 46.847656 C 30.441406 44.832031 30.898438 42.980469 32.304688 41.429688 C 34.152344 39.390625 38.621094 39.390625 39.476562 43.261719 C 39.699219 44.265625 39.859375 45.300781 39.867188 46.320312 C 39.90625 51.660156 39.910156 57 39.863281 62.339844 C 39.855469 63.355469 40.21875 63.675781 41.167969 63.660156 C 43.6875 63.625 46.207031 63.652344 48.726562 63.648438 C 49.949219 63.644531 50.078125 63.515625 50.078125 62.296875 C 50.078125 56.441406 50.089844 50.585938 50.066406 44.726562 C 50.066406 43.664062 50.015625 42.589844 49.847656 41.542969 C 49.40625 38.777344 48.515625 36.183594 46.394531 34.234375 C 42.550781 30.707031 35.773438 30.5625 31.671875 33.9375 C 30.742188 34.703125 29.960938 35.65625 29.09375 36.539062 C 25.253906 29.996094 15.082031 29.945312 10.511719 36.164062 C 10.511719 35.21875 10.519531 34.480469 10.511719 33.746094 M 97.726562 33.75 C 97.722656 32.527344 97.542969 32.410156 96.371094 32.429688 C 93.957031 32.46875 91.539062 32.46875 89.121094 32.429688 C 87.996094 32.414062 87.789062 32.539062 87.789062 33.667969 C 87.785156 43.25 87.800781 52.828125 87.769531 62.410156 C 87.769531 63.378906 88.109375 63.675781 89.019531 63.667969 C 91.539062 63.628906 94.058594 63.652344 96.578125 63.652344 C 97.988281 63.652344 98.082031 63.5625 98.082031 62.132812 C 98.082031 57.03125 98.089844 51.933594 98.078125 46.832031 C 98.074219 45.175781 98.363281 43.613281 99.332031 42.234375 C 100.625 40.402344 102.414062 39.792969 104.535156 40.199219 C 106.421875 40.5625 107.316406 41.941406 107.660156 43.730469 C 107.84375 44.703125 107.996094 45.703125 108.003906 46.691406 C 108.035156 51.859375 108.015625 57.03125 108.019531 62.199219 C 108.019531 63.546875 108.132812 63.652344 109.488281 63.652344 C 111.9375 63.652344 114.386719 63.652344 116.839844 63.652344 C 118.164062 63.652344 118.339844 63.5 118.335938 62.1875 C 118.324219 60.363281 118.261719 58.539062 118.257812 56.714844 C 118.242188 52.546875 118.285156 48.375 118.242188 44.207031 C 118.203125 40.800781 117.546875 37.582031 115.226562 34.902344 C 111.863281 31.015625 103.34375 29.730469 98.652344 35.417969 C 98.414062 35.703125 98.167969 35.984375 97.726562 36.5 C 97.726562 35.390625 97.726562 34.570312 97.726562 33.75 M 177.875 33.78125 C 177.871094 32.496094 177.714844 32.414062 176.453125 32.441406 C 174.105469 32.488281 171.753906 32.480469 169.40625 32.433594 C 168.179688 32.40625 167.96875 32.535156 167.96875 33.78125 C 167.96875 43.289062 167.96875 52.796875 167.96875 62.304688 C 167.96875 63.574219 168.042969 63.652344 169.289062 63.652344 C 171.707031 63.65625 174.121094 63.648438 176.539062 63.65625 C 178.171875 63.660156 178.292969 63.558594 178.285156 61.921875 C 178.261719 57 178.214844 52.074219 178.207031 47.148438 C 178.207031 45.226562 178.503906 43.378906 179.796875 41.832031 C 181.128906 40.238281 182.84375 39.828125 184.777344 40.230469 C 186.578125 40.605469 187.449219 41.933594 187.796875 43.621094 C 188.019531 44.691406 188.15625 45.796875 188.164062 46.890625 C 188.203125 52.023438 188.179688 57.15625 188.183594 62.289062 C 188.183594 63.636719 188.207031 63.664062 189.570312 63.652344 C 190.421875 63.644531 191.269531 63.570312 192.121094 63.574219 C 193.792969 63.582031 195.460938 63.597656 197.125 63.667969 C 198.058594 63.703125 198.5 63.457031 198.441406 62.394531 C 198.351562 60.851562 198.433594 59.292969 198.414062 57.746094 C 198.355469 52.410156 198.460938 47.066406 198.164062 41.746094 C 197.910156 37.285156 195.710938 33.847656 191.390625 32.308594 C 186.949219 30.726562 182.871094 31.574219 179.363281 34.835938 C 178.90625 35.269531 178.511719 35.773438 177.878906 36.476562 C 177.878906 35.394531 177.878906 34.589844 177.878906 33.78125 M 73.398438 62.050781 C 73.371094 63.570312 73.507812 63.683594 74.976562 63.660156 C 77.054688 63.632812 79.128906 63.632812 81.203125 63.660156 C 82.601562 63.675781 82.738281 63.582031 82.738281 62.191406 C 82.738281 56.957031 82.785156 51.71875 82.710938 46.484375 C 82.6875 44.742188 82.476562 42.976562 82.136719 41.265625 C 81.265625 36.894531 79.042969 33.589844 74.59375 32.230469 C 72.113281 31.46875 69.558594 31.390625 67.003906 31.546875 C 62.816406 31.804688 59.019531 33.179688 55.734375 35.867188 C 54.808594 36.621094 54.820312 36.800781 55.621094 37.65625 C 56.675781 38.78125 57.734375 39.898438 58.757812 41.054688 C 59.90625 42.351562 59.886719 42.359375 61.285156 41.363281 C 63.683594 39.644531 66.304688 38.785156 69.269531 39.3125 C 71.386719 39.6875 72.929688 41.195312 73.058594 42.941406 C 73.117188 43.730469 72.851562 44.070312 72.046875 44.089844 C 70.347656 44.136719 68.640625 44.199219 66.945312 44.34375 C 63.558594 44.636719 60.335938 45.449219 57.335938 47.1875 C 51.777344 50.410156 52.324219 59.300781 57.308594 62.375 C 60.253906 64.1875 63.429688 64.761719 66.824219 64.007812 C 69.242188 63.472656 71.308594 62.261719 73.398438 60.457031 C 73.398438 61.175781 73.402344 61.613281 73.398438 62.050781 M 73.210938 52.839844 C 72.328125 56.730469 67.582031 58.753906 64.191406 56.6875 C 62.390625 55.59375 62.179688 53.054688 63.96875 51.859375 C 65.117188 51.09375 66.554688 50.71875 67.914062 50.351562 C 68.882812 50.089844 69.933594 50.128906 70.445312 50.085938 C 73.605469 49.984375 73.804688 50.226562 73.207031 52.84375 M 145.476562 41.644531 C 146.726562 40.1875 147.960938 38.71875 149.230469 37.277344 C 150.726562 35.570312 150.742188 35.464844 148.828125 34.246094 C 144.804688 31.683594 140.40625 31.101562 135.773438 31.730469 C 128.074219 32.777344 122.199219 39.066406 121.910156 46.71875 C 121.71875 51.753906 122.804688 56.394531 126.625 59.976562 C 130.203125 63.328125 134.539062 64.699219 139.363281 64.589844 C 143.078125 64.507812 146.585938 63.699219 149.628906 61.394531 C 150.558594 60.695312 150.566406 60.511719 149.824219 59.59375 C 148.464844 57.914062 147.066406 56.261719 145.757812 54.546875 C 145.160156 53.761719 144.726562 53.753906 143.945312 54.34375 C 139.78125 57.488281 134.191406 55.699219 132.59375 50.75 C 131.992188 48.894531 132.089844 47.027344 132.683594 45.175781 C 134.304688 40.128906 139.773438 38.488281 143.835938 41.835938 C 144.097656 42.050781 144.363281 42.246094 144.695312 42.507812 C 144.980469 42.191406 145.234375 41.925781 145.472656 41.644531 M 213.898438 33.679688 C 213.90625 32.742188 213.59375 32.390625 212.65625 32.40625 C 210.105469 32.445312 207.558594 32.414062 205.007812 32.421875 C 203.753906 32.421875 203.585938 32.652344 203.585938 33.957031 C 203.597656 43.386719 203.597656 52.816406 203.59375 62.246094 C 203.59375 63.4375 203.746094 63.652344 204.910156 63.652344 C 207.460938 63.660156 210.011719 63.660156 212.5625 63.652344 C 213.777344 63.652344 213.882812 63.539062 213.882812 62.28125 C 213.886719 57.53125 213.882812 52.78125 213.882812 48.03125 C 213.882812 43.28125 213.867188 38.460938 213.898438 33.679688 M 162.402344 33.738281 C 162.402344 32.5625 162.175781 32.402344 161.027344 32.417969 C 158.578125 32.453125 156.125 32.460938 153.675781 32.417969 C 152.460938 32.398438 152.214844 32.5625 152.214844 33.761719 C 152.214844 43.304688 152.222656 52.847656 152.195312 62.390625 C 152.191406 63.347656 152.523438 63.675781 153.4375 63.667969 C 155.988281 63.632812 158.542969 63.664062 161.097656 63.652344 C 162.292969 63.648438 162.402344 63.523438 162.402344 62.261719 C 162.402344 57.539062 162.402344 52.820312 162.402344 48.101562 C 162.402344 43.386719 162.402344 38.527344 162.402344 33.738281 M 277.441406 37.753906 C 273.949219 35.285156 270.480469 32.789062 266.972656 30.34375 C 266.292969 29.867188 265.976562 29.363281 266.019531 28.503906 C 266.09375 27.160156 266.039062 25.804688 266.039062 24.375 C 263.277344 24.375 260.710938 24.28125 258.15625 24.40625 C 255.921875 24.515625 254.925781 25.617188 254.644531 27.894531 C 254.578125 28.414062 254.53125 28.945312 254.53125 29.46875 C 254.527344 40.375 254.527344 51.28125 254.53125 62.1875 C 254.53125 62.648438 254.582031 63.105469 254.609375 63.53125 L 266.097656 63.53125 L 266.097656 43.976562 C 266.628906 44.332031 266.953125 44.539062 267.265625 44.757812 C 269.566406 46.417969 271.847656 48.109375 274.167969 49.730469 C 276.8125 51.574219 278.371094 51.320312 280.265625 48.734375 C 282.210938 46.085938 284.097656 43.398438 286 40.726562 C 286.144531 40.527344 286.214844 40.28125 286.339844 40.011719 C 285.058594 39.074219 283.832031 38.171875 282.535156 37.222656 C 280.238281 39.699219 280.195312 39.707031 277.4375 37.753906 M 288.195312 63.515625 L 299.550781 63.515625 C 299.570312 63.152344 299.59375 62.894531 299.59375 62.632812 C 299.59375 51.5 299.597656 40.367188 299.589844 29.234375 C 299.589844 28.707031 299.523438 28.179688 299.4375 27.660156 C 299.09375 25.609375 298.265625 24.597656 296.234375 24.46875 C 293.601562 24.292969 290.945312 24.425781 288.195312 24.425781 Z M 276.867188 0.863281 C 254.390625 0.816406 237.183594 18.023438 236.980469 40.351562 C 236.773438 63.3125 253.246094 81.1875 276.730469 81.265625 C 299.496094 81.339844 316.53125 64.078125 316.53125 41.082031 C 316.53125 18.085938 299.539062 0.90625 276.867188 0.863281 M 255.882812 12.066406 C 263.15625 6.664062 271.464844 4.871094 280.339844 5.648438 C 287.972656 6.316406 294.765625 9.128906 300.464844 14.390625 C 306.269531 19.746094 309.710938 26.441406 310.988281 34.230469 C 312.550781 43.761719 311.238281 52.84375 306.03125 61.078125 C 300.304688 70.132812 291.929688 75.074219 281.445312 76.359375 C 272.933594 77.402344 264.855469 75.949219 257.5625 71.238281 C 248.734375 65.535156 243.921875 57.195312 242.359375 46.828125 C 242.246094 46.089844 242.160156 45.347656 242.109375 44.605469 C 242.027344 43.421875 241.992188 42.234375 241.921875 40.8125 C 242.179688 29.226562 246.246094 19.230469 255.886719 12.070312 " fill-opacity="1" fill-rule="nonzero"/></g><g clip-path="url(#a2044a90a5)"><path fill="#003383" d="M 169.332031 34.34375 C 166.761719 34.355469 164.808594 32.496094 164.777344 30 C 164.746094 27.542969 166.8125 25.53125 169.347656 25.546875 C 171.859375 25.5625 173.890625 27.535156 173.890625 29.964844 C 173.890625 32.390625 171.875 34.328125 169.332031 34.339844 M 209.316406 25.546875 C 206.847656 25.570312 204.828125 27.527344 204.816406 29.90625 C 204.800781 32.445312 206.753906 34.351562 209.351562 34.347656 C 211.9375 34.34375 213.859375 32.480469 213.863281 29.980469 C 213.867188 27.453125 211.886719 25.523438 209.316406 25.542969 M 156.996094 90.179688 C 156.828125 92.371094 155.542969 94.035156 153.550781 94.523438 C 151.070312 95.128906 148.832031 94.597656 147 92.726562 C 146.535156 92.25 146.1875 92.292969 145.800781 92.765625 C 145.667969 92.925781 145.554688 93.105469 145.398438 93.234375 C 144.894531 93.660156 145.054688 93.972656 145.5 94.339844 C 147.570312 96.054688 149.898438 96.847656 152.601562 96.582031 C 156.753906 96.164062 159.074219 93.648438 159.078125 89.429688 C 159.085938 85.246094 159.078125 81.058594 159.078125 76.875 C 159.078125 75.539062 158.933594 75.421875 157.617188 75.5 C 157.136719 75.53125 157 75.75 157.015625 76.1875 C 157.035156 76.636719 157.019531 77.085938 157.019531 77.613281 C 153.242188 74.519531 149.195312 74.417969 146.601562 77.269531 C 144.015625 80.117188 143.984375 84.742188 146.539062 87.433594 C 149.171875 90.210938 153.425781 90.089844 157.007812 87.058594 C 157.007812 88.171875 157.070312 89.183594 156.996094 90.183594 M 151.921875 76.902344 C 154.867188 76.875 157.1875 79.257812 157.226562 82.359375 C 157.265625 85.445312 155.125 87.640625 152.054688 87.65625 C 148.957031 87.671875 146.835938 85.523438 146.8125 82.34375 C 146.789062 79.28125 148.992188 76.933594 151.917969 76.902344 M 201.300781 76.644531 C 201.277344 75.628906 201.128906 75.539062 200.039062 75.492188 C 199.140625 75.453125 199.214844 76.019531 199.21875 76.605469 C 199.222656 82.824219 199.21875 89.042969 199.21875 95.265625 C 199.21875 95.445312 199.21875 95.625 199.226562 95.804688 C 199.257812 96.792969 199.988281 96.546875 200.570312 96.59375 C 201.230469 96.648438 201.3125 96.273438 201.308594 95.730469 C 201.296875 93.253906 201.304688 90.773438 201.304688 88.292969 L 201.304688 87.339844 C 203.089844 88.710938 204.839844 89.761719 207.027344 89.777344 C 209.289062 89.789062 211.023438 88.792969 212.308594 87 C 214.5 83.949219 214.042969 79.285156 211.378906 76.878906 C 208.621094 74.386719 204.636719 74.636719 201.304688 77.621094 C 201.304688 77.203125 201.308594 76.921875 201.304688 76.644531 M 206.386719 88.0625 C 203.394531 88.078125 201.113281 85.683594 201.113281 82.519531 C 201.109375 79.332031 203.335938 76.933594 206.324219 76.902344 C 209.34375 76.871094 211.488281 79.191406 211.492188 82.496094 C 211.5 85.769531 209.410156 88.042969 206.386719 88.058594 M 175.539062 75.105469 C 171.710938 74.96875 168.328125 78.175781 168.234375 82.03125 C 168.125 86.53125 171.082031 89.777344 175.339844 89.832031 C 179.785156 89.890625 182.863281 86.917969 182.976562 82.457031 C 183.078125 78.335938 179.972656 75.265625 175.539062 75.105469 M 173.78125 87.746094 C 171.929688 87.078125 170.953125 85.632812 170.550781 83.742188 C 169.941406 80.863281 171.359375 78.074219 173.882812 77.195312 C 177.40625 75.964844 180.800781 78.59375 180.792969 82.542969 C 180.785156 86.441406 177.324219 89.023438 173.78125 87.746094 M 194.601562 88.699219 C 194.671875 89.433594 194.859375 89.492188 196.023438 89.472656 C 196.691406 89.464844 196.597656 89.046875 196.59375 88.640625 C 196.578125 86.164062 196.558594 83.6875 196.546875 81.210938 C 196.539062 79.636719 196.5625 78.0625 196.535156 76.488281 C 196.519531 75.582031 196.351562 75.527344 195.222656 75.492188 C 194.421875 75.46875 194.457031 75.945312 194.460938 76.492188 C 194.460938 78.710938 194.460938 80.933594 194.4375 83.152344 C 194.425781 84.484375 194.050781 85.710938 193.164062 86.714844 C 192.101562 87.917969 190.757812 88.28125 189.207031 87.914062 C 187.769531 87.570312 187.09375 86.542969 186.828125 85.191406 C 186.691406 84.488281 186.640625 83.757812 186.632812 83.039062 C 186.609375 80.871094 186.625 78.703125 186.621094 76.53125 C 186.621094 75.566406 186.515625 75.503906 185.574219 75.464844 C 184.824219 75.433594 184.558594 75.671875 184.574219 76.476562 C 184.632812 79.335938 184.5625 82.203125 184.640625 85.0625 C 184.730469 88.109375 187.15625 90.105469 190.160156 89.816406 C 191.894531 89.648438 193.257812 88.886719 194.515625 87.570312 C 194.542969 87.945312 194.5625 88.324219 194.597656 88.699219 M 163.625 76.363281 C 163.546875 75.480469 163.546875 75.515625 162.289062 75.496094 C 161.554688 75.484375 161.617188 75.941406 161.621094 76.417969 C 161.640625 80.417969 161.660156 84.414062 161.679688 88.414062 C 161.6875 89.378906 161.808594 89.429688 162.914062 89.472656 C 163.777344 89.503906 163.792969 88.980469 163.769531 88.375 C 163.765625 88.246094 163.75 88.117188 163.753906 87.988281 C 163.792969 85.644531 163.773438 83.292969 163.894531 80.953125 C 164.011719 78.804688 165.261719 77.507812 167.308594 77.222656 C 167.757812 77.160156 168.226562 77.214844 168.683594 77.1875 C 168.867188 77.175781 169.109375 77.136719 169.21875 77.015625 C 169.792969 76.351562 169.414062 75.273438 168.554688 75.191406 C 168.011719 75.140625 167.4375 75.199219 166.894531 75.304688 C 165.566406 75.554688 164.644531 76.433594 163.742188 77.621094 C 163.691406 77.078125 163.65625 76.71875 163.625 76.363281 M 55.199219 41.535156 C 55.191406 40.570312 55.042969 40.484375 54.066406 40.507812 C 52.265625 40.550781 50.464844 40.5625 48.667969 40.527344 C 47.632812 40.503906 47.496094 40.566406 47.496094 41.589844 C 47.496094 48.953125 47.496094 56.316406 47.496094 63.683594 C 47.496094 64.707031 47.566406 64.78125 48.566406 64.78125 C 50.445312 64.785156 52.324219 64.777344 54.203125 64.785156 C 55.417969 64.789062 55.519531 64.703125 55.511719 63.472656 C 55.496094 59.644531 55.460938 55.816406 55.453125 51.984375 C 55.453125 50.578125 55.644531 49.210938 56.476562 48.011719 C 57.382812 46.707031 58.640625 46.25 60.15625 46.53125 C 61.558594 46.792969 62.246094 47.808594 62.546875 49.121094 C 62.683594 49.71875 62.75 50.339844 62.753906 50.949219 C 62.769531 55.207031 62.761719 59.464844 62.761719 63.722656 C 62.761719 64.6875 62.847656 64.777344 63.800781 64.777344 C 65.734375 64.78125 67.664062 64.78125 69.597656 64.777344 C 70.601562 64.777344 70.683594 64.691406 70.683594 63.6875 C 70.683594 59.699219 70.679688 55.707031 70.6875 51.71875 C 70.691406 50.148438 71.042969 48.710938 72.136719 47.503906 C 73.574219 45.921875 77.046875 45.921875 77.714844 48.929688 C 77.886719 49.707031 78.011719 50.515625 78.015625 51.308594 C 78.046875 55.457031 78.050781 59.609375 78.015625 63.761719 C 78.007812 64.550781 78.289062 64.796875 79.027344 64.789062 C 80.988281 64.761719 82.945312 64.78125 84.902344 64.777344 C 85.855469 64.777344 85.953125 64.671875 85.953125 63.730469 C 85.953125 59.175781 85.964844 54.621094 85.945312 50.070312 C 85.945312 49.242188 85.90625 48.40625 85.777344 47.59375 C 85.433594 45.441406 84.738281 43.425781 83.089844 41.914062 C 80.101562 39.167969 74.835938 39.058594 71.644531 41.679688 C 70.921875 42.277344 70.316406 43.015625 69.640625 43.703125 C 66.65625 38.617188 58.75 38.578125 55.199219 43.414062 C 55.199219 42.675781 55.203125 42.105469 55.199219 41.53125 M 122.992188 41.535156 C 122.992188 40.585938 122.851562 40.496094 121.941406 40.507812 C 120.0625 40.539062 118.183594 40.539062 116.304688 40.507812 C 115.429688 40.496094 115.269531 40.59375 115.269531 41.472656 C 115.269531 48.921875 115.277344 56.367188 115.253906 63.816406 C 115.253906 64.570312 115.519531 64.800781 116.226562 64.792969 C 118.1875 64.761719 120.144531 64.78125 122.101562 64.78125 C 123.199219 64.78125 123.269531 64.710938 123.269531 63.597656 C 123.273438 59.632812 123.277344 55.667969 123.269531 51.703125 C 123.265625 50.417969 123.492188 49.203125 124.246094 48.132812 C 125.25 46.707031 126.640625 46.234375 128.285156 46.550781 C 129.753906 46.832031 130.453125 47.90625 130.71875 49.292969 C 130.863281 50.050781 130.976562 50.828125 130.984375 51.597656 C 131.007812 55.613281 130.996094 59.632812 130.996094 63.652344 C 130.996094 64.699219 131.085938 64.78125 132.136719 64.78125 C 134.042969 64.78125 135.949219 64.78125 137.855469 64.78125 C 138.882812 64.78125 139.019531 64.660156 139.015625 63.644531 C 139.007812 62.222656 138.960938 60.804688 138.957031 59.386719 C 138.945312 56.144531 138.976562 52.902344 138.941406 49.664062 C 138.914062 47.015625 138.402344 44.515625 136.597656 42.429688 C 133.984375 39.410156 127.363281 38.410156 123.714844 42.832031 C 123.53125 43.054688 123.339844 43.269531 122.996094 43.671875 C 122.996094 42.8125 122.996094 42.171875 122.996094 41.535156 M 185.300781 41.558594 C 185.296875 40.5625 185.175781 40.496094 184.195312 40.519531 C 182.371094 40.554688 180.542969 40.550781 178.71875 40.511719 C 177.765625 40.492188 177.597656 40.589844 177.597656 41.558594 C 177.597656 48.953125 177.597656 56.34375 177.597656 63.734375 C 177.597656 64.722656 177.65625 64.78125 178.628906 64.78125 C 180.503906 64.785156 182.382812 64.777344 184.265625 64.785156 C 185.53125 64.789062 185.628906 64.707031 185.621094 63.4375 C 185.601562 59.609375 185.566406 55.78125 185.558594 51.953125 C 185.558594 50.457031 185.792969 49.019531 186.796875 47.820312 C 187.832031 46.582031 189.164062 46.261719 190.667969 46.574219 C 192.066406 46.863281 192.742188 47.898438 193.011719 49.210938 C 193.1875 50.042969 193.292969 50.902344 193.300781 51.75 C 193.328125 55.742188 193.3125 59.730469 193.316406 63.71875 C 193.316406 64.769531 193.332031 64.789062 194.394531 64.78125 C 195.054688 64.773438 195.714844 64.71875 196.378906 64.71875 C 197.675781 64.726562 198.972656 64.738281 200.265625 64.792969 C 200.992188 64.820312 201.335938 64.628906 201.289062 63.804688 C 201.21875 62.601562 201.28125 61.394531 201.269531 60.191406 C 201.222656 56.042969 201.304688 51.886719 201.074219 47.75 C 200.875 44.28125 199.167969 41.609375 195.808594 40.414062 C 192.355469 39.183594 189.183594 39.84375 186.460938 42.378906 C 186.101562 42.714844 185.796875 43.109375 185.304688 43.65625 C 185.304688 42.8125 185.304688 42.1875 185.304688 41.558594 M 104.082031 63.539062 C 104.0625 64.71875 104.167969 64.804688 105.3125 64.789062 C 106.925781 64.765625 108.539062 64.765625 110.148438 64.789062 C 111.238281 64.800781 111.34375 64.726562 111.34375 63.644531 C 111.34375 59.578125 111.378906 55.503906 111.320312 51.4375 C 111.304688 50.082031 111.140625 48.707031 110.875 47.378906 C 110.199219 43.980469 108.46875 41.410156 105.011719 40.351562 C 103.085938 39.761719 101.097656 39.699219 99.109375 39.824219 C 95.855469 40.023438 92.90625 41.09375 90.351562 43.183594 C 89.632812 43.769531 89.640625 43.910156 90.261719 44.570312 C 91.082031 45.445312 91.90625 46.316406 92.699219 47.214844 C 93.59375 48.222656 93.578125 48.230469 94.664062 47.453125 C 96.53125 46.117188 98.566406 45.449219 100.875 45.859375 C 102.519531 46.152344 103.71875 47.324219 103.820312 48.679688 C 103.863281 49.292969 103.660156 49.558594 103.03125 49.574219 C 101.710938 49.609375 100.382812 49.660156 99.066406 49.769531 C 96.433594 50 93.929688 50.632812 91.597656 51.980469 C 87.273438 54.484375 87.699219 61.398438 91.574219 63.785156 C 93.863281 65.195312 96.332031 65.644531 98.972656 65.058594 C 100.851562 64.640625 102.457031 63.699219 104.082031 62.296875 C 104.082031 62.855469 104.085938 63.195312 104.082031 63.535156 M 103.9375 56.375 C 103.25 59.398438 99.5625 60.972656 96.925781 59.367188 C 95.527344 58.515625 95.359375 56.542969 96.753906 55.613281 C 97.644531 55.019531 98.761719 54.726562 99.820312 54.441406 C 100.574219 54.238281 101.390625 54.269531 101.789062 54.234375 C 104.242188 54.15625 104.398438 54.34375 103.933594 56.378906 M 160.113281 47.671875 C 161.089844 46.542969 162.046875 45.398438 163.03125 44.277344 C 164.199219 42.949219 164.207031 42.867188 162.71875 41.921875 C 159.59375 39.929688 156.175781 39.476562 152.570312 39.964844 C 146.585938 40.78125 142.019531 45.667969 141.796875 51.617188 C 141.648438 55.53125 142.492188 59.140625 145.460938 61.921875 C 148.242188 64.53125 151.613281 65.59375 155.363281 65.511719 C 158.25 65.445312 160.976562 64.816406 163.34375 63.027344 C 164.066406 62.480469 164.074219 62.339844 163.496094 61.625 C 162.4375 60.320312 161.351562 59.035156 160.335938 57.699219 C 159.867188 57.089844 159.535156 57.085938 158.921875 57.546875 C 155.6875 59.988281 151.339844 58.597656 150.097656 54.75 C 149.632812 53.308594 149.710938 51.855469 150.171875 50.417969 C 151.429688 46.492188 155.679688 45.21875 158.839844 47.820312 C 159.042969 47.988281 159.25 48.140625 159.507812 48.34375 C 159.730469 48.097656 159.925781 47.890625 160.113281 47.671875 M 213.304688 41.480469 C 213.3125 40.753906 213.066406 40.476562 212.339844 40.492188 C 210.355469 40.523438 208.375 40.496094 206.390625 40.503906 C 205.417969 40.503906 205.289062 40.683594 205.289062 41.695312 C 205.296875 49.027344 205.296875 56.355469 205.292969 63.6875 C 205.292969 64.613281 205.410156 64.78125 206.316406 64.78125 C 208.300781 64.789062 210.285156 64.785156 212.265625 64.78125 C 213.210938 64.78125 213.292969 64.695312 213.292969 63.714844 C 213.296875 60.023438 213.292969 56.328125 213.292969 52.636719 C 213.292969 48.945312 213.28125 45.199219 213.304688 41.480469 M 173.273438 41.523438 C 173.273438 40.613281 173.097656 40.488281 172.203125 40.5 C 170.300781 40.527344 168.394531 40.535156 166.488281 40.5 C 165.542969 40.484375 165.351562 40.613281 165.351562 41.546875 C 165.351562 48.964844 165.359375 56.382812 165.339844 63.800781 C 165.335938 64.542969 165.59375 64.800781 166.304688 64.792969 C 168.289062 64.765625 170.273438 64.789062 172.257812 64.78125 C 173.1875 64.777344 173.273438 64.679688 173.273438 63.699219 C 173.273438 60.03125 173.273438 56.359375 173.273438 52.695312 C 173.273438 49.027344 173.273438 45.25 173.273438 41.523438 M 262.703125 44.648438 C 259.988281 42.726562 257.289062 40.789062 254.5625 38.886719 C 254.035156 38.519531 253.789062 38.125 253.824219 37.457031 C 253.878906 36.410156 253.839844 35.359375 253.839844 34.25 C 251.691406 34.25 249.695312 34.175781 247.710938 34.273438 C 245.972656 34.355469 245.199219 35.214844 244.980469 36.984375 C 244.929688 37.386719 244.890625 37.800781 244.890625 38.207031 C 244.886719 46.683594 244.886719 55.164062 244.890625 63.640625 C 244.890625 64 244.933594 64.355469 244.953125 64.6875 L 253.882812 64.6875 L 253.882812 49.484375 C 254.296875 49.761719 254.550781 49.921875 254.792969 50.09375 C 256.578125 51.382812 258.351562 52.699219 260.160156 53.957031 C 262.214844 55.390625 263.425781 55.191406 264.898438 53.183594 C 266.410156 51.125 267.875 49.035156 269.355469 46.957031 C 269.464844 46.804688 269.523438 46.613281 269.621094 46.402344 C 268.625 45.671875 267.671875 44.972656 266.660156 44.234375 C 264.875 46.160156 264.84375 46.167969 262.699219 44.648438 M 271.0625 64.675781 L 279.890625 64.675781 C 279.902344 64.394531 279.921875 64.191406 279.921875 63.988281 C 279.921875 55.335938 279.925781 46.679688 279.917969 38.023438 C 279.917969 37.617188 279.867188 37.207031 279.800781 36.800781 C 279.535156 35.207031 278.890625 34.421875 277.3125 34.320312 C 275.265625 34.183594 273.199219 34.285156 271.0625 34.285156 Z M 262.257812 15.96875 C 244.785156 15.933594 231.40625 29.308594 231.25 46.667969 C 231.089844 64.515625 243.894531 78.414062 262.152344 78.472656 C 279.847656 78.53125 293.089844 65.113281 293.089844 47.234375 C 293.089844 29.359375 279.878906 16.003906 262.257812 15.96875 M 245.945312 24.679688 C 251.597656 20.480469 258.058594 19.085938 264.957031 19.691406 C 270.886719 20.207031 276.171875 22.394531 280.601562 26.484375 C 285.113281 30.648438 287.789062 35.855469 288.78125 41.910156 C 289.996094 49.316406 288.976562 56.378906 284.929688 62.78125 C 280.476562 69.820312 273.964844 73.660156 265.816406 74.660156 C 259.199219 75.472656 252.917969 74.339844 247.25 70.679688 C 240.386719 66.246094 236.644531 59.761719 235.429688 51.703125 C 235.34375 51.128906 235.273438 50.550781 235.234375 49.972656 C 235.171875 49.054688 235.144531 48.132812 235.089844 47.027344 C 235.292969 38.019531 238.449219 30.25 245.945312 24.679688 " fill-opacity="1" fill-rule="nonzero"/></g><path stroke-linecap="round" transform="matrix(0, -1.362761, 1.362761, 0, 313.714329, 68.999963)" fill="none" stroke-linejoin="miter" d="M 1.000355 1.000759 L 33.666119 1.000759 " stroke="#003383" stroke-width="2" stroke-opacity="1" stroke-miterlimit="4"/></g></g></svg>